<svg width="481" height="481" viewBox="0 0 481 481" version="1.1" xmlns="http://www.w3.org/2000/svg" xmlns:xlink="http://www.w3.org/1999/xlink">
<title>body_snatchers_orig (Canvas)</title>
<desc>Created using Figma</desc>
<g id="Canvas" transform="translate(192 284)">
<g id="body_snatchers_orig">
<g id="layer1">
<g id="rect4140">
<use xlink:href="#path0_stroke" transform="translate(-191 -283)" fill="#F5F5F5"/>
</g>
<g id="path4142">
<use xlink:href="#path1_fill" transform="translate(5.02116 -255.405)" fill="#418BC4"/>
<use xlink:href="#path2_stroke" transform="translate(5.02116 -255.405)" fill="#418BC4"/>
</g>
<g id="path4144">
<use xlink:href="#path3_stroke" transform="translate(103.443 -205.191)" fill="#418BC4"/>
</g>
<g id="path4154">
<use xlink:href="#path4_stroke" transform="translate(94.6788 -14.6513)" fill="#418BC4"/>
</g>
<g id="path4145">
<use xlink:href="#path5_stroke" transform="translate(-95.6624 -12.7978)" fill="#418BC4"/>
</g>
<g id="path4147">
<use xlink:href="#path6_stroke" transform="translate(-106.171 -200.824)" fill="#418BC4"/>
</g>
</g>
</g>
</g>
<defs>
<path id="path0_stroke" d="M 1.2862e-05 0L 1.2862e-05 -0.726407L -0.301783 -0.726407L -0.514729 -0.512551L 1.2862e-05 0ZM 478.547 0L 479.274 0L 479.274 -0.726407L 478.547 -0.726407L 478.547 0ZM 1.2862e-05 478.547L -0.669371 478.829L -0.482121 479.274L 1.29083e-05 479.274L 1.2862e-05 478.547ZM 0 1.2917e-05L -0.514742 -0.512538L -0.726407 -0.299968L -0.726407 1.29365e-05L 0 1.2917e-05ZM 1.2862e-05 0.726407L 478.547 0.726407L 478.547 -0.726407L 1.2862e-05 -0.726407L 1.2862e-05 0.726407ZM 477.821 0L 477.821 1.2917e-05L 479.274 1.2917e-05L 479.274 0L 477.821 0ZM 477.821 0L 477.821 478.547L 479.274 478.547L 479.274 0L 477.821 0ZM 477.821 478.547L 477.821 478.547L 479.274 478.547L 479.274 478.547L 477.821 478.547ZM 478.547 477.821L 1.28157e-05 477.821L 1.29083e-05 479.274L 478.547 479.274L 478.547 477.821ZM 0.669397 478.265L 0.669384 478.265L -0.669384 478.829L -0.669371 478.829L 0.669397 478.265ZM 0.72642 478.547L 0.726407 1.28975e-05L -0.726407 1.29365e-05L -0.726394 478.547L 0.72642 478.547ZM 0.514742 0.512563L 0.514754 0.512551L -0.514729 -0.512551L -0.514742 -0.512538L 0.514742 0.512563Z"/>
<path id="path1_fill" d="M 49.1706 115.756C 76.3267 115.756 98.3411 89.8432 98.3411 57.878C 98.3411 25.9129 76.3267 0 49.1706 0C 22.0144 0 6.63574e-06 25.9129 6.63574e-06 57.878C 6.63574e-06 89.8432 22.0144 115.756 49.1706 115.756Z"/>
<path id="path2_stroke" d="M 96.0918 57.878C 96.0918 88.9587 74.7546 113.507 49.1706 113.507L 49.1706 118.005C 77.8989 118.005 100.59 90.7276 100.59 57.878L 96.0918 57.878ZM 49.1706 113.507C 23.5866 113.507 2.24931 88.9587 2.24931 57.878L -2.2493 57.878C -2.2493 90.7276 20.4423 118.005 49.1706 118.005L 49.1706 113.507ZM 2.24931 57.878C 2.24931 26.7973 23.5866 2.2493 49.1706 2.2493L 49.1706 -2.2493C 20.4423 -2.2493 -2.2493 25.0284 -2.2493 57.878L 2.24931 57.878ZM 49.1706 2.2493C 74.7546 2.2493 96.0918 26.7973 96.0918 57.878L 100.59 57.878C 100.59 25.0284 77.8989 -2.2493 49.1706 -2.2493L 49.1706 2.2493Z"/>
<path id="path3_stroke" d="M 95.3844 4.39554C 97.812 -4.10102 92.8921 -12.9568 84.3955 -15.3844C 75.899 -17.812 67.0432 -12.8921 64.6156 -4.39554L 95.3844 4.39554ZM 60 70L 67.1554 84.3108L 73.4508 81.1632L 75.3844 74.3955L 60 70ZM -7.15541 85.6892C -15.0591 89.641 -18.2627 99.2518 -14.3108 107.155C -10.359 115.059 -0.748229 118.263 7.15543 114.311L -7.15541 85.6892ZM 64.6156 -4.39554L 44.6156 65.6045L 75.3844 74.3955L 95.3844 4.39554L 64.6156 -4.39554ZM 52.8446 55.6892L -7.15541 85.6892L 7.15543 114.311L 67.1554 84.3108L 52.8446 55.6892Z"/>
<path id="path4_stroke" d="M 9.31496 -13.0089C 2.13035 -18.1534 -7.86438 -16.4996 -13.0089 -9.31497C -18.1534 -2.13036 -16.4996 7.86438 -9.31499 13.0089L 9.31496 -13.0089ZM 74.013 52.9969L 89.6984 49.8394L 88.4542 43.6586L 83.328 39.988L 74.013 52.9969ZM 87.7068 121.023L 72.0215 124.18L 74.2885 135.442L 85.6839 136.895L 87.7068 121.023ZM 115.176 140.654C 123.941 141.771 131.953 135.571 133.07 126.805C 134.188 118.039 127.987 110.028 119.222 108.91L 115.176 140.654ZM -9.31499 13.0089L 64.6981 66.0058L 83.328 39.988L 9.31496 -13.0089L -9.31499 13.0089ZM 58.3277 56.1544L 72.0215 124.18L 103.392 117.865L 89.6984 49.8394L 58.3277 56.1544ZM 85.6839 136.895L 115.176 140.654L 119.222 108.91L 89.7298 105.151L 85.6839 136.895Z"/>
<path id="path5_stroke" d="M 122.706 12.1481C 129.415 6.39736 130.192 -3.70344 124.441 -10.4126C 118.691 -17.1219 108.59 -17.8988 101.881 -12.1481L 122.706 12.1481ZM 42.2932 60L 31.8805 47.8519L 28.2297 50.9811L 26.9088 55.6045L 42.2932 60ZM 22.2932 130L 27.2098 145.226L 35.3326 142.603L 37.6775 134.396L 22.2932 130ZM -4.91661 121.973C -13.3256 124.688 -17.9412 133.706 -15.2259 142.115C -12.5105 150.524 -3.4924 155.14 4.91661 152.425L -4.91661 121.973ZM 101.881 -12.1481L 31.8805 47.8519L 52.7058 72.1481L 122.706 12.1481L 101.881 -12.1481ZM 26.9088 55.6045L 6.90878 125.604L 37.6775 134.396L 57.6776 64.3955L 26.9088 55.6045ZM 17.3766 114.774L -4.91661 121.973L 4.91661 152.425L 27.2098 145.226L 17.3766 114.774Z"/>
<path id="path6_stroke" d="M 107.183 113.007C 115.457 116.11 124.68 111.918 127.783 103.644C 130.885 95.3701 126.693 86.1475 118.419 83.0448L 107.183 113.007ZM 32.8013 68.0261L 18.3892 74.9754L 21.1758 80.7546L 27.1833 83.0073L 32.8013 68.0261ZM 14.4121 -6.9493C 10.5741 -14.9089 1.01026 -18.25 -6.9493 -14.4121C -14.9089 -10.5741 -18.25 -1.01026 -14.4121 6.94929L 14.4121 -6.9493ZM 118.419 83.0448L 38.4192 53.0448L 27.1833 83.0073L 107.183 113.007L 118.419 83.0448ZM 47.2133 61.0768L 14.4121 -6.9493L -14.4121 6.94929L 18.3892 74.9754L 47.2133 61.0768Z"/>
</defs>
</svg>
